# xmcd
#
# Track frame offsets:
#	150
#	17531
#	36593
#	53904
#	71936
#	87755
#	102818
#	118558
#	135111
#	150163
#	166127
#
# Disc length: 2488 seconds
#
# Revision: 0
# Processed by: cddbd v1.5.1PL0 Copyright (c) Steve Scherf et al.
# Submitted via: EasyCDDAExtractor 8.0.1.1
#
DISCID=7e09b60b
DTITLE=Derryl Perry - All Just To Get To You
DYEAR=2005
DGENRE=Country
TTITLE0=The Lucky Just Believe
TTITLE1=I Can't Forget Her
TTITLE2=Four Nights In Albuquerque
TTITLE3=angry Heart
TTITLE4=Talk To Me
TTITLE5=You WIll
TTITLE6=Resurrection Day
TTITLE7=This Could Get Good
TTITLE8=The Only Cure
TTITLE9=All Just To Get TO You
TTITLE10=Lonely Town
EXTD=
EXTT0=
EXTT1=
EXTT2=
EXTT3=
EXTT4=
EXTT5=
EXTT6=
EXTT7=
EXTT8=
EXTT9=
EXTT10=
PLAYORDER=
